<svg width="1238" height="268" viewBox="0 0 1238 268" fill="none" xmlns="http://www.w3.org/2000/svg">
<path d="M28.7906 36H14.3906V18H28.7906V36ZM43.1813 36H28.7812V0H43.1813V36ZM57.5719 36H43.1719V0H57.5719V36ZM71.9625 36H57.5625V0H71.9625V36ZM86.3531 36H71.9531V0H86.3531V36ZM100.744 36H86.3438V0H100.744V36ZM115.134 36H100.734V0H115.134V36ZM129.525 36H115.125V18H129.525V36ZM215.869 36H201.469V18H215.869V36ZM230.259 36H215.859V18H230.259V36ZM244.65 36H230.25V18H244.65V36ZM259.041 36H244.641V18H259.041V36ZM273.431 36H259.031V0H273.431V36ZM287.822 36H273.422V0H287.822V36ZM302.213 36H287.812V0H302.213V36ZM316.603 36H302.203V18H316.603V36ZM330.994 36H316.594V18H330.994V36ZM345.384 36H330.984V18H345.384V36ZM359.775 36H345.375V18H359.775V36ZM446.119 36H431.719V18H446.119V36ZM460.509 36H446.109V0H460.509V36ZM474.9 36H460.5V0H474.9V36ZM489.291 36H474.891V0H489.291V36ZM503.681 36H489.281V0H503.681V36ZM518.072 36H503.672V0H518.072V36ZM532.463 36H518.062V0H532.463V36ZM546.853 36H532.453V0H546.853V36ZM561.244 36H546.844V0H561.244V36ZM618.806 36H604.406V18H618.806V36ZM633.197 36H618.797V0H633.197V36ZM647.588 36H633.188V0H647.588V36ZM661.978 36H647.578V0H661.978V36ZM676.369 36H661.969V0H676.369V36ZM690.759 36H676.359V0H690.759V36ZM705.15 36H690.75V0H705.15V36ZM719.541 36H705.141V0H719.541V36ZM733.931 36H719.531V0H733.931V36ZM791.494 36H777.094V18H791.494V36ZM805.884 36H791.484V0H805.884V36ZM820.275 36H805.875V0H820.275V36ZM834.666 36H820.266V0H834.666V36ZM849.056 36H834.656V0H849.056V36ZM863.447 36H849.047V0H863.447V36ZM877.838 36H863.438V0H877.838V36ZM892.228 36H877.828V0H892.228V36ZM906.619 36H892.219V0H906.619V36ZM964.181 36H949.781V18H964.181V36ZM978.572 36H964.172V0H978.572V36ZM1050.53 36H1036.12V0H1050.53V36ZM1064.92 36H1050.52V18H1064.92V36ZM1122.48 36H1108.08V18H1122.48V36ZM1136.87 36H1122.47V0H1136.87V36ZM1151.26 36H1136.86V0H1151.26V36ZM1208.82 36H1194.42V18H1208.82V36ZM14.4 65H0V29H14.4V65ZM28.7906 65H14.3906V29H28.7906V65ZM43.1813 65H28.7812V29H43.1813V65ZM115.134 65H100.734V29H115.134V65ZM129.525 65H115.125V29H129.525V65ZM143.916 65H129.516V29H143.916V65ZM187.088 65H172.688V47H187.088V65ZM201.478 65H187.078V29H201.478V65ZM215.869 65H201.469V29H215.869V65ZM230.259 47H215.859V29H230.259V47ZM244.65 47H230.25V29H244.65V47ZM259.041 47H244.641V29H259.041V47ZM273.431 65H259.031V29H273.431V65ZM287.822 65H273.422V29H287.822V65ZM302.213 65H287.812V29H302.213V65ZM316.603 47H302.203V29H316.603V47ZM330.994 47H316.594V29H330.994V47ZM345.384 47H330.984V29H345.384V47ZM359.775 65H345.375V29H359.775V65ZM374.166 65H359.766V29H374.166V65ZM388.556 65H374.156V47H388.556V65ZM431.728 65H417.328V29H431.728V65ZM446.119 65H431.719V29H446.119V65ZM460.509 65H446.109V29H460.509V65ZM532.463 65H518.062V29H532.463V65ZM546.853 65H532.453V29H546.853V65ZM561.244 65H546.844V29H561.244V65ZM604.416 65H590.016V29H604.416V65ZM618.806 65H604.406V29H618.806V65ZM633.197 65H618.797V29H633.197V65ZM705.15 65H690.75V29H705.15V65ZM719.541 65H705.141V29H719.541V65ZM733.931 65H719.531V29H733.931V65ZM777.103 65H762.703V29H777.103V65ZM791.494 65H777.094V29H791.494V65ZM805.884 65H791.484V29H805.884V65ZM877.838 65H863.438V29H877.838V65ZM892.228 65H877.828V29H892.228V65ZM906.619 65H892.219V29H906.619V65ZM949.791 65H935.391V29H949.791V65ZM964.181 65H949.781V29H964.181V65ZM978.572 65H964.172V29H978.572V65ZM1050.53 65H1036.12V29H1050.53V65ZM1064.92 65H1050.52V29H1064.92V65ZM1079.31 65H1064.91V29H1079.31V65ZM1122.48 65H1108.08V29H1122.48V65ZM1136.87 65H1122.47V29H1136.87V65ZM1151.26 65H1136.86V29H1151.26V65ZM1208.82 65H1194.42V29H1208.82V65ZM1223.21 65H1208.81V29H1223.21V65ZM1237.6 65H1223.2V47H1237.6V65ZM14.4 94H0V58H14.4V94ZM28.7906 94H14.3906V58H28.7906V94ZM43.1813 94H28.7812V58H43.1813V94ZM115.134 94H100.734V58H115.134V94ZM129.525 94H115.125V58H129.525V94ZM143.916 94H129.516V58H143.916V94ZM187.088 94H172.688V58H187.088V94ZM201.478 94H187.078V58H201.478V94ZM215.869 94H201.469V58H215.869V94ZM273.431 94H259.031V58H273.431V94ZM287.822 94H273.422V58H287.822V94ZM302.213 94H287.812V58H302.213V94ZM359.775 94H345.375V58H359.775V94ZM374.166 94H359.766V58H374.166V94ZM388.556 94H374.156V58H388.556V94ZM431.728 94H417.328V58H431.728V94ZM446.119 94H431.719V58H446.119V94ZM460.509 94H446.109V58H460.509V94ZM532.463 94H518.062V58H532.463V94ZM546.853 94H532.453V58H546.853V94ZM561.244 94H546.844V58H561.244V94ZM604.416 94H590.016V58H604.416V94ZM618.806 94H604.406V58H618.806V94ZM633.197 94H618.797V58H633.197V94ZM705.15 94H690.75V58H705.15V94ZM719.541 94H705.141V58H719.541V94ZM733.931 94H719.531V58H733.931V94ZM777.103 94H762.703V58H777.103V94ZM791.494 94H777.094V58H791.494V94ZM805.884 94H791.484V58H805.884V94ZM877.838 94H863.438V58H877.838V94ZM892.228 76H877.828V58H892.228V76ZM949.791 94H935.391V58H949.791V94ZM964.181 94H949.781V58H964.181V94ZM978.572 94H964.172V58H978.572V94ZM1050.53 94H1036.12V58H1050.53V94ZM1064.92 94H1050.52V58H1064.92V94ZM1079.31 94H1064.91V58H1079.31V94ZM1122.48 94H1108.08V58H1122.48V94ZM1136.87 94H1122.47V58H1136.87V94ZM1151.26 94H1136.86V58H1151.26V94ZM1165.65 94H1151.25V76H1165.65V94ZM1180.04 94H1165.64V76H1180.04V94ZM1194.43 94H1180.03V76H1194.43V94ZM1208.82 94H1194.42V58H1208.82V94ZM1223.21 94H1208.81V58H1223.21V94ZM1237.6 94H1223.2V58H1237.6V94ZM14.4 123H0V87H14.4V123ZM28.7906 123H14.3906V87H28.7906V123ZM43.1813 123H28.7812V87H43.1813V123ZM115.134 123H100.734V87H115.134V123ZM129.525 123H115.125V87H129.525V123ZM143.916 123H129.516V87H143.916V123ZM187.088 123H172.688V87H187.088V123ZM201.478 123H187.078V87H201.478V123ZM215.869 123H201.469V87H215.869V123ZM273.431 123H259.031V87H273.431V123ZM287.822 123H273.422V87H287.822V123ZM302.213 123H287.812V87H302.213V123ZM359.775 123H345.375V87H359.775V123ZM374.166 123H359.766V87H374.166V123ZM388.556 123H374.156V87H388.556V123ZM431.728 123H417.328V87H431.728V123ZM446.119 123H431.719V87H446.119V123ZM460.509 123H446.109V87H460.509V123ZM532.463 123H518.062V87H532.463V123ZM546.853 123H532.453V87H546.853V123ZM561.244 123H546.844V87H561.244V123ZM590.025 123H575.625V105H590.025V123ZM604.416 123H590.016V87H604.416V123ZM618.806 123H604.406V87H618.806V123ZM633.197 123H618.797V87H633.197V123ZM647.588 123H633.188V105H647.588V123ZM661.978 123H647.578V105H661.978V123ZM676.369 123H661.969V105H676.369V123ZM690.759 123H676.359V105H690.759V123ZM705.15 123H690.75V87H705.15V123ZM719.541 123H705.141V87H719.541V123ZM733.931 105H719.531V87H733.931V105ZM777.103 123H762.703V87H777.103V123ZM791.494 123H777.094V87H791.494V123ZM805.884 123H791.484V87H805.884V123ZM935.4 123H921V105H935.4V123ZM949.791 123H935.391V87H949.791V123ZM964.181 123H949.781V87H964.181V123ZM978.572 123H964.172V87H978.572V123ZM992.963 123H978.562V105H992.963V123ZM1007.35 123H992.953V105H1007.35V123ZM1021.74 123H1007.34V105H1021.74V123ZM1036.13 123H1021.73V105H1036.13V123ZM1050.53 123H1036.12V87H1050.53V123ZM1064.92 123H1050.52V87H1064.92V123ZM1079.31 123H1064.91V87H1079.31V123ZM1093.7 123H1079.3V105H1093.7V123ZM1122.48 105H1108.08V87H1122.48V105ZM1136.87 105H1122.47V87H1136.87V105ZM1151.26 105H1136.86V87H1151.26V105ZM1165.65 105H1151.25V87H1165.65V105ZM1180.04 105H1165.64V87H1180.04V105ZM1194.43 105H1180.03V87H1194.43V105ZM1208.82 123H1194.42V87H1208.82V123ZM1223.21 123H1208.81V87H1223.21V123ZM1237.6 123H1223.2V87H1237.6V123ZM14.4 152H0V116H14.4V152ZM28.7906 152H14.3906V116H28.7906V152ZM43.1813 152H28.7812V116H43.1813V152ZM115.134 152H100.734V116H115.134V152ZM129.525 152H115.125V116H129.525V152ZM143.916 152H129.516V116H143.916V152ZM187.088 152H172.688V116H187.088V152ZM201.478 152H187.078V116H201.478V152ZM215.869 152H201.469V116H215.869V152ZM273.431 152H259.031V116H273.431V152ZM287.822 152H273.422V116H287.822V152ZM302.213 152H287.812V116H302.213V152ZM359.775 152H345.375V116H359.775V152ZM374.166 152H359.766V116H374.166V152ZM388.556 152H374.156V116H388.556V152ZM417.338 152H402.938V116H417.338V152ZM431.728 152H417.328V116H431.728V152ZM446.119 152H431.719V116H446.119V152ZM460.509 152H446.109V116H460.509V152ZM474.9 152H460.5V116H474.9V152ZM489.291 152H474.891V116H489.291V152ZM503.681 152H489.281V116H503.681V152ZM518.072 152H503.672V116H518.072V152ZM532.463 152H518.062V116H532.463V152ZM546.853 152H532.453V116H546.853V152ZM561.244 152H546.844V116H561.244V152ZM590.025 134H575.625V116H590.025V134ZM604.416 152H590.016V116H604.416V152ZM618.806 152H604.406V116H618.806V152ZM633.197 152H618.797V116H633.197V152ZM647.588 134H633.188V116H647.588V134ZM661.978 134H647.578V116H661.978V134ZM676.369 134H661.969V116H676.369V134ZM690.759 134H676.359V116H690.759V134ZM705.15 134H690.75V116H705.15V134ZM777.103 152H762.703V116H777.103V152ZM791.494 152H777.094V116H791.494V152ZM805.884 152H791.484V116H805.884V152ZM921.009 134H906.609V116H921.009V134ZM935.4 134H921V116H935.4V134ZM949.791 152H935.391V116H949.791V152ZM964.181 152H949.781V116H964.181V152ZM978.572 152H964.172V116H978.572V152ZM992.963 134H978.562V116H992.963V134ZM1007.35 134H992.953V116H1007.35V134ZM1021.74 134H1007.34V116H1021.74V134ZM1036.13 134H1021.73V116H1036.13V134ZM1050.53 152H1036.12V116H1050.53V152ZM1064.92 152H1050.52V116H1064.92V152ZM1079.31 152H1064.91V116H1079.31V152ZM1122.48 152H1108.08V134H1122.48V152ZM1136.87 152H1122.47V116H1136.87V152ZM1151.26 152H1136.86V116H1151.26V152ZM1208.82 152H1194.42V116H1208.82V152ZM1223.21 152H1208.81V116H1223.21V152ZM1237.6 152H1223.2V116H1237.6V152ZM14.4 181H0V145H14.4V181ZM28.7906 181H14.3906V145H28.7906V181ZM43.1813 181H28.7812V145H43.1813V181ZM115.134 181H100.734V145H115.134V181ZM129.525 181H115.125V145H129.525V181ZM143.916 181H129.516V145H143.916V181ZM187.088 181H172.688V145H187.088V181ZM201.478 181H187.078V145H201.478V181ZM215.869 181H201.469V145H215.869V181ZM273.431 181H259.031V145H273.431V181ZM287.822 181H273.422V145H287.822V181ZM302.213 181H287.812V145H302.213V181ZM359.775 181H345.375V145H359.775V181ZM374.166 181H359.766V145H374.166V181ZM388.556 181H374.156V145H388.556V181ZM431.728 181H417.328V145H431.728V181ZM446.119 181H431.719V145H446.119V181ZM460.509 181H446.109V145H460.509V181ZM532.463 181H518.062V145H532.463V181ZM546.853 181H532.453V145H546.853V181ZM561.244 181H546.844V145H561.244V181ZM590.025 181H575.625V145H590.025V181ZM604.416 181H590.016V145H604.416V181ZM618.806 181H604.406V145H618.806V181ZM633.197 181H618.797V145H633.197V181ZM647.588 181H633.188V145H647.588V181ZM661.978 181H647.578V145H661.978V181ZM676.369 181H661.969V145H676.369V181ZM690.759 181H676.359V145H690.759V181ZM705.15 181H690.75V145H705.15V181ZM719.541 181H705.141V145H719.541V181ZM733.931 181H719.531V145H733.931V181ZM777.103 181H762.703V145H777.103V181ZM791.494 181H777.094V145H791.494V181ZM805.884 181H791.484V145H805.884V181ZM877.838 181H863.438V145H877.838V181ZM892.228 181H877.828V163H892.228V181ZM949.791 181H935.391V145H949.791V181ZM964.181 181H949.781V145H964.181V181ZM978.572 181H964.172V145H978.572V181ZM1050.53 181H1036.12V145H1050.53V181ZM1064.92 181H1050.52V145H1064.92V181ZM1079.31 181H1064.91V145H1079.31V181ZM1122.48 181H1108.08V145H1122.48V181ZM1136.87 181H1122.47V145H1136.87V181ZM1151.26 181H1136.86V145H1151.26V181ZM1208.82 181H1194.42V145H1208.82V181ZM1223.21 181H1208.81V145H1223.21V181ZM1237.6 181H1223.2V145H1237.6V181ZM14.4 210H0V174H14.4V210ZM28.7906 210H14.3906V174H28.7906V210ZM43.1813 210H28.7812V174H43.1813V210ZM115.134 210H100.734V174H115.134V210ZM129.525 210H115.125V174H129.525V210ZM143.916 210H129.516V174H143.916V210ZM187.088 210H172.688V174H187.088V210ZM201.478 210H187.078V174H201.478V210ZM215.869 210H201.469V174H215.869V210ZM273.431 210H259.031V174H273.431V210ZM287.822 210H273.422V174H287.822V210ZM302.213 210H287.812V174H302.213V210ZM359.775 210H345.375V174H359.775V210ZM374.166 210H359.766V174H374.166V210ZM388.556 210H374.156V174H388.556V210ZM431.728 210H417.328V174H431.728V210ZM446.119 210H431.719V174H446.119V210ZM460.509 210H446.109V174H460.509V210ZM532.463 210H518.062V174H532.463V210ZM546.853 210H532.453V174H546.853V210ZM561.244 210H546.844V174H561.244V210ZM604.416 210H590.016V174H604.416V210ZM618.806 210H604.406V174H618.806V210ZM633.197 210H618.797V174H633.197V210ZM705.15 210H690.75V174H705.15V210ZM719.541 210H705.141V174H719.541V210ZM733.931 210H719.531V174H733.931V210ZM777.103 210H762.703V174H777.103V210ZM791.494 210H777.094V174H791.494V210ZM805.884 210H791.484V174H805.884V210ZM877.838 210H863.438V174H877.838V210ZM892.228 210H877.828V174H892.228V210ZM906.619 210H892.219V174H906.619V210ZM949.791 210H935.391V174H949.791V210ZM964.181 210H949.781V174H964.181V210ZM978.572 210H964.172V174H978.572V210ZM1050.53 210H1036.12V174H1050.53V210ZM1064.92 210H1050.52V174H1064.92V210ZM1079.31 210H1064.91V174H1079.31V210ZM1122.48 210H1108.08V174H1122.48V210ZM1136.87 210H1122.47V174H1136.87V210ZM1151.26 210H1136.86V174H1151.26V210ZM1208.82 210H1194.42V174H1208.82V210ZM1223.21 210H1208.81V174H1223.21V210ZM1237.6 210H1223.2V174H1237.6V210ZM28.7906 221H14.3906V203H28.7906V221ZM43.1813 239H28.7812V203H43.1813V239ZM57.5719 239H43.1719V203H57.5719V239ZM71.9625 239H57.5625V203H71.9625V239ZM86.3531 239H71.9531V203H86.3531V239ZM100.744 239H86.3438V203H100.744V239ZM115.134 239H100.734V203H115.134V239ZM129.525 221H115.125V203H129.525V221ZM201.478 221H187.078V203H201.478V221ZM215.869 239H201.469V203H215.869V239ZM273.431 239H259.031V203H273.431V239ZM287.822 239H273.422V203H287.822V239ZM302.213 239H287.812V203H302.213V239ZM359.775 239H345.375V203H359.775V239ZM374.166 221H359.766V203H374.166V221ZM431.728 239H417.328V203H431.728V239ZM446.119 239H431.719V203H446.119V239ZM460.509 239H446.109V203H460.509V239ZM532.463 239H518.062V203H532.463V239ZM546.853 221H532.453V203H546.853V221ZM604.416 239H590.016V203H604.416V239ZM618.806 239H604.406V203H618.806V239ZM633.197 239H618.797V203H633.197V239ZM705.15 239H690.75V203H705.15V239ZM719.541 239H705.141V203H719.541V239ZM733.931 239H719.531V203H733.931V239ZM777.103 239H762.703V203H777.103V239ZM791.494 239H777.094V203H791.494V239ZM805.884 239H791.484V203H805.884V239ZM820.275 239H805.875V203H820.275V239ZM834.666 239H820.266V203H834.666V239ZM849.056 239H834.656V203H849.056V239ZM863.447 239H849.047V203H863.447V239ZM877.838 239H863.438V203H877.838V239ZM892.228 221H877.828V203H892.228V221ZM949.791 239H935.391V203H949.791V239ZM964.181 239H949.781V203H964.181V239ZM978.572 239H964.172V203H978.572V239ZM1050.53 239H1036.12V203H1050.53V239ZM1064.92 221H1050.52V203H1064.92V221ZM1136.87 221H1122.47V203H1136.87V221ZM1151.26 239H1136.86V203H1151.26V239ZM1165.65 239H1151.25V203H1165.65V239ZM1180.04 239H1165.64V203H1180.04V239ZM1194.43 239H1180.03V203H1194.43V239ZM1208.82 239H1194.42V203H1208.82V239ZM1223.21 221H1208.81V203H1223.21V221ZM604.416 268H590.016V232H604.416V268ZM618.806 268H604.406V232H618.806V268ZM633.197 268H618.797V232H633.197V268ZM705.15 268H690.75V232H705.15V268ZM719.541 268H705.141V232H719.541V268ZM733.931 268H719.531V232H733.931V268Z" fill="#EAEAEA"/>
</svg>
